<?xml version="1.0" encoding="ISO-8859-1" standalone="no"?>
<!DOCTYPE svg PUBLIC "-//W3C//DTD SVG 1.1//EN" "http://www.w3.org/Graphics/SVG/1.1/DTD/svg11.dtd">
<svg version="1.1" baseProfile="full" id="body" width="8in" height="8in" viewBox="0 0 1 1" preserveAspectRatio="none" xmlns="http://www.w3.org/2000/svg" xmlns:xlink="http://www.w3.org/1999/xlink" xmlns:ev="http://www.w3.org/2001/xml-events">
<title>SVG drawing</title>
<desc>This was produced by version 4.4 of GNU libplot, a free library for exporting 2-D vector graphics.</desc>
<g id="content" transform="translate(0.26562,0.25625) scale(1,-1) scale(0.125) " xml:space="preserve" stroke="black" stroke-linecap="butt" stroke-linejoin="miter" stroke-miterlimit="10.433" stroke-dasharray="none" stroke-dashoffset="0" stroke-opacity="1" fill="none" fill-rule="evenodd" fill-opacity="1" font-style="normal" font-variant="normal" font-weight="normal" font-stretch="normal" font-size-adjust="none" letter-spacing="normal" word-spacing="normal" text-anchor="start">
<rect x="0" y="-0.15" width="0.75" height="0.3" stroke-width="0.0094118" />
<text transform="translate(0.25146,-0.049028) scale(1,-1) scale(0.0069444) " font-family="Helvetica,sans-serif" font-size="20px" stroke="none" fill="black" >App</text>
<line x1="0.1" y1="-0.07" x2="0.65" y2="-0.07" stroke-width="0.0094118" />
<rect x="1.25" y="-0.15" width="0.75" height="0.3" stroke-width="0.0094118" />
<text transform="translate(1.4243,-0.049028) scale(1,-1) scale(0.0069444) " font-family="Helvetica,sans-serif" font-size="20px" stroke="none" fill="black" >Kernel</text>
<line x1="1.35" y1="-0.07" x2="1.9" y2="-0.07" stroke-width="0.0094118" />
<rect x="2.5" y="-0.15" width="0.75" height="0.3" stroke-width="0.0094118" />
<text transform="translate(2.5971,-0.049028) scale(1,-1) scale(0.0069444) " font-family="Helvetica,sans-serif" font-size="20px" stroke="none" fill="black" >Contextd</text>
<line x1="2.6" y1="-0.07" x2="3.15" y2="-0.07" stroke-width="0.0094118" />
<line x1="0.375" y1="-0.15" x2="0.375" y2="-0.25" stroke-width="0.0094118" stroke-dasharray="0.05, 0.05"/>
<line x1="0.325" y1="-0.25" x2="0.425" y2="-0.25" stroke-width="0.0094118" />
<line x1="1.625" y1="-0.15" x2="1.625" y2="-0.25" stroke-width="0.0094118" stroke-dasharray="0.05, 0.05"/>
<line x1="1.575" y1="-0.25" x2="1.675" y2="-0.25" stroke-width="0.0094118" />
<line x1="2.875" y1="-0.15" x2="2.875" y2="-0.25" stroke-width="0.0094118" stroke-dasharray="0.05, 0.05"/>
<line x1="2.825" y1="-0.25" x2="2.925" y2="-0.25" stroke-width="0.0094118" />
<line x1="2.815" y1="-0.5" x2="1.685" y2="-0.5" stroke-width="0.0094118" />
<polygon points="1.785,-0.525 1.685,-0.5 1.785,-0.475 " stroke-width="0.0094118" fill="black" />
<text transform="translate(1.9336,-0.46569) scale(1,-1) scale(0.0069444) " font-family="Helvetica,sans-serif" font-size="20px" stroke="none" fill="black" >register(1)</text>
<text transform="translate(2.2307,-0.63236) scale(1,-1) scale(0.0069444) " font-family="Helvetica,sans-serif" font-size="20px" stroke="none" fill="black" > </text>
<line x1="0.325" y1="-0.25" x2="0.325" y2="-0.75" stroke-width="0.0094118" />
<line x1="0.425" y1="-0.25" x2="0.425" y2="-0.75" stroke-width="0.0094118" />
<text transform="translate(0.24375,-0.94903) scale(1,-1) scale(0.0069444) " font-family="Helvetica,sans-serif" font-size="20px" stroke="none" fill="black" >loop</text>
<polyline points="0.75,-0.75 0.75,-0.9 0.6,-1.05 0,-1.05 " stroke-width="0.0094118" />
<line x1="2.815" y1="-1.3" x2="1.685" y2="-1.3" stroke-width="0.0094118" />
<polygon points="1.785,-1.325 1.685,-1.3 1.785,-1.275 " stroke-width="0.0094118" fill="black" />
<text transform="translate(1.9413,-1.2657) scale(1,-1) scale(0.0069444) " font-family="Helvetica,sans-serif" font-size="20px" stroke="none" fill="black" >question()</text>
<text transform="translate(2.2307,-1.4324) scale(1,-1) scale(0.0069444) " font-family="Helvetica,sans-serif" font-size="20px" stroke="none" fill="black" > </text>
<line x1="0.435" y1="-1.55" x2="1.565" y2="-1.55" stroke-width="0.0094118" />
<polygon points="1.465,-1.525 1.565,-1.55 1.465,-1.575 " stroke-width="0.0094118" fill="black" />
<text transform="translate(0.74542,-1.5157) scale(1,-1) scale(0.0069444) " font-family="Helvetica,sans-serif" font-size="20px" stroke="none" fill="black" >syscall()</text>
<text transform="translate(0.98069,-1.6824) scale(1,-1) scale(0.0069444) " font-family="Helvetica,sans-serif" font-size="20px" stroke="none" fill="black" > </text>
<line x1="1.685" y1="-1.8" x2="2.815" y2="-1.8" stroke-width="0.0094118" stroke-dasharray="0.05, 0.05"/>
<polygon points="2.715,-1.775 2.815,-1.8 2.715,-1.825 " stroke-width="0.0094118" fill="black" />
<text transform="translate(1.9181,-1.7657) scale(1,-1) scale(0.0069444) " font-family="Helvetica,sans-serif" font-size="20px" stroke="none" fill="black" >struct filled</text>
<text transform="translate(2.2307,-1.9324) scale(1,-1) scale(0.0069444) " font-family="Helvetica,sans-serif" font-size="20px" stroke="none" fill="black" > </text>
<polyline points="2.935,-2.05 3.435,-2.05 3.435,-2.3 2.935,-2.3 " stroke-width="0.0094118" />
<polygon points="3.035,-2.325 2.935,-2.3 3.035,-2.275 " stroke-width="0.0094118" fill="black" />
<text transform="translate(2.9157,-2.1407) scale(1,-1) scale(0.0069444) " font-family="Helvetica,sans-serif" font-size="20px" stroke="none" fill="black" > </text>
<text transform="translate(2.9157,-2.3074) scale(1,-1) scale(0.0069444) " font-family="Helvetica,sans-serif" font-size="20px" stroke="none" fill="black" > </text>
<text transform="translate(2.9157,-2.474) scale(1,-1) scale(0.0069444) " font-family="Helvetica,sans-serif" font-size="20px" stroke="none" fill="black" > </text>
<line x1="2.815" y1="-2.55" x2="1.685" y2="-2.55" stroke-width="0.0094118" />
<polygon points="1.785,-2.575 1.685,-2.55 1.785,-2.525 " stroke-width="0.0094118" fill="black" />
<text transform="translate(1.9799,-2.5157) scale(1,-1) scale(0.0069444) " font-family="Helvetica,sans-serif" font-size="20px" stroke="none" fill="black" >answer()</text>
<text transform="translate(2.2307,-2.6824) scale(1,-1) scale(0.0069444) " font-family="Helvetica,sans-serif" font-size="20px" stroke="none" fill="black" > </text>
<line x1="1.565" y1="-2.8" x2="0.435" y2="-2.8" stroke-width="0.0094118" stroke-dasharray="0.05, 0.05"/>
<polygon points="0.535,-2.825 0.435,-2.8 0.535,-2.775 " stroke-width="0.0094118" fill="black" />
<text transform="translate(0.64875,-2.7657) scale(1,-1) scale(0.0069444) " font-family="Helvetica,sans-serif" font-size="20px" stroke="none" fill="black" >return code</text>
<text transform="translate(0.98069,-2.9324) scale(1,-1) scale(0.0069444) " font-family="Helvetica,sans-serif" font-size="20px" stroke="none" fill="black" > </text>
<rect x="0" y="-3.05" width="3.25" height="2.3" stroke-width="0.0094118" />
<line x1="2.815" y1="-3.55" x2="1.685" y2="-3.55" stroke-width="0.0094118" />
<polygon points="1.785,-3.575 1.685,-3.55 1.785,-3.525 " stroke-width="0.0094118" fill="black" />
<text transform="translate(1.9336,-3.5157) scale(1,-1) scale(0.0069444) " font-family="Helvetica,sans-serif" font-size="20px" stroke="none" fill="black" >register(0)</text>
<text transform="translate(2.2307,-3.6824) scale(1,-1) scale(0.0069444) " font-family="Helvetica,sans-serif" font-size="20px" stroke="none" fill="black" > </text>
<line x1="1.575" y1="-0.25" x2="1.575" y2="-4.05" stroke-width="0.0094118" />
<line x1="1.675" y1="-0.25" x2="1.675" y2="-4.05" stroke-width="0.0094118" />
<line x1="1.575" y1="-4.05" x2="1.675" y2="-4.05" stroke-width="0.0094118" />
<line x1="2.825" y1="-0.25" x2="2.825" y2="-4.05" stroke-width="0.0094118" />
<line x1="2.925" y1="-0.25" x2="2.925" y2="-4.05" stroke-width="0.0094118" />
<line x1="2.825" y1="-4.05" x2="2.925" y2="-4.05" stroke-width="0.0094118" />
<line x1="0.325" y1="-1.05" x2="0.325" y2="-4.05" stroke-width="0.0094118" />
<line x1="0.425" y1="-1.05" x2="0.425" y2="-4.05" stroke-width="0.0094118" />
<line x1="0.325" y1="-4.05" x2="0.425" y2="-4.05" stroke-width="0.0094118" />
</g>
</svg>
