<?xml version="1.0" encoding="ISO-8859-1" standalone="no"?>
<!DOCTYPE svg PUBLIC "-//W3C//DTD SVG 1.1//EN" "http://www.w3.org/Graphics/SVG/1.1/DTD/svg11.dtd">
<svg version="1.1" baseProfile="full" id="body" width="8in" height="8in" viewBox="0 0 1 1" preserveAspectRatio="none" xmlns="http://www.w3.org/2000/svg" xmlns:xlink="http://www.w3.org/1999/xlink" xmlns:ev="http://www.w3.org/2001/xml-events">
<title>SVG drawing</title>
<desc>This was produced by version 4.4 of GNU libplot, a free library for exporting 2-D vector graphics.</desc>
<g id="content" transform="translate(0.34375,0.2875) scale(1,-1) scale(0.125) " xml:space="preserve" stroke="black" stroke-linecap="butt" stroke-linejoin="miter" stroke-miterlimit="10.433" stroke-dasharray="none" stroke-dashoffset="0" stroke-opacity="1" fill="none" fill-rule="evenodd" fill-opacity="1" font-style="normal" font-variant="normal" font-weight="normal" font-stretch="normal" font-size-adjust="none" letter-spacing="normal" word-spacing="normal" text-anchor="start">
<rect x="0" y="-0.15" width="0.75" height="0.3" stroke-width="0.0094118" />
<text transform="translate(0.17431,-0.049028) scale(1,-1) scale(0.0069444) " font-family="Helvetica,sans-serif" font-size="20px" stroke="none" fill="black" >Kernel</text>
<line x1="0.1" y1="-0.07" x2="0.65" y2="-0.07" stroke-width="0.0094118" />
<rect x="1.25" y="-0.15" width="0.75" height="0.3" stroke-width="0.0094118" />
<text transform="translate(1.3471,-0.049028) scale(1,-1) scale(0.0069444) " font-family="Helvetica,sans-serif" font-size="20px" stroke="none" fill="black" >Contextd</text>
<line x1="1.35" y1="-0.07" x2="1.9" y2="-0.07" stroke-width="0.0094118" />
<line x1="0.375" y1="-0.15" x2="0.375" y2="-0.25" stroke-width="0.0094118" stroke-dasharray="0.05, 0.05"/>
<line x1="0.325" y1="-0.25" x2="0.425" y2="-0.25" stroke-width="0.0094118" />
<line x1="1.625" y1="-0.15" x2="1.625" y2="-0.25" stroke-width="0.0094118" stroke-dasharray="0.05, 0.05"/>
<line x1="1.575" y1="-0.25" x2="1.675" y2="-0.25" stroke-width="0.0094118" />
<line x1="1.565" y1="-0.5" x2="0.435" y2="-0.5" stroke-width="0.0094118" />
<polygon points="0.535,-0.525 0.435,-0.5 0.535,-0.475 " stroke-width="0.0094118" fill="black" />
<text transform="translate(0.68361,-0.46569) scale(1,-1) scale(0.0069444) " font-family="Helvetica,sans-serif" font-size="20px" stroke="none" fill="black" >register(1)</text>
<text transform="translate(0.98069,-0.63236) scale(1,-1) scale(0.0069444) " font-family="Helvetica,sans-serif" font-size="20px" stroke="none" fill="black" > </text>
<line x1="0.325" y1="-0.25" x2="0.325" y2="-0.75" stroke-width="0.0094118" />
<line x1="0.425" y1="-0.25" x2="0.425" y2="-0.75" stroke-width="0.0094118" />
<text transform="translate(0.21292,-0.94903) scale(1,-1) scale(0.0069444) " font-family="Helvetica,sans-serif" font-size="20px" stroke="none" fill="black" >Hook</text>
<polyline points="0.75,-0.75 0.75,-0.9 0.6,-1.05 0,-1.05 " stroke-width="0.0094118" />
<line x1="1.565" y1="-1.3" x2="0.435" y2="-1.3" stroke-width="0.0094118" />
<polygon points="0.535,-1.325 0.435,-1.3 0.535,-1.275 " stroke-width="0.0094118" fill="black" />
<text transform="translate(0.69125,-1.2657) scale(1,-1) scale(0.0069444) " font-family="Helvetica,sans-serif" font-size="20px" stroke="none" fill="black" >question()</text>
<text transform="translate(0.98069,-1.4324) scale(1,-1) scale(0.0069444) " font-family="Helvetica,sans-serif" font-size="20px" stroke="none" fill="black" > </text>
<line x1="0.435" y1="-1.55" x2="1.565" y2="-1.55" stroke-width="0.0094118" stroke-dasharray="0.05, 0.05"/>
<polygon points="1.465,-1.525 1.565,-1.55 1.465,-1.575 " stroke-width="0.0094118" fill="black" />
<text transform="translate(0.66812,-1.5157) scale(1,-1) scale(0.0069444) " font-family="Helvetica,sans-serif" font-size="20px" stroke="none" fill="black" >struct filled</text>
<text transform="translate(0.98069,-1.6824) scale(1,-1) scale(0.0069444) " font-family="Helvetica,sans-serif" font-size="20px" stroke="none" fill="black" > </text>
<polyline points="1.685,-1.8 2.185,-1.8 2.185,-2.05 1.685,-2.05 " stroke-width="0.0094118" />
<polygon points="1.785,-2.075 1.685,-2.05 1.785,-2.025 " stroke-width="0.0094118" fill="black" />
<text transform="translate(1.6657,-1.8907) scale(1,-1) scale(0.0069444) " font-family="Helvetica,sans-serif" font-size="20px" stroke="none" fill="black" > </text>
<text transform="translate(1.6657,-2.0574) scale(1,-1) scale(0.0069444) " font-family="Helvetica,sans-serif" font-size="20px" stroke="none" fill="black" > </text>
<text transform="translate(1.6657,-2.224) scale(1,-1) scale(0.0069444) " font-family="Helvetica,sans-serif" font-size="20px" stroke="none" fill="black" > </text>
<line x1="1.565" y1="-2.3" x2="0.435" y2="-2.3" stroke-width="0.0094118" />
<polygon points="0.535,-2.325 0.435,-2.3 0.535,-2.275 " stroke-width="0.0094118" fill="black" />
<text transform="translate(0.72993,-2.2657) scale(1,-1) scale(0.0069444) " font-family="Helvetica,sans-serif" font-size="20px" stroke="none" fill="black" >answer()</text>
<text transform="translate(0.98069,-2.4324) scale(1,-1) scale(0.0069444) " font-family="Helvetica,sans-serif" font-size="20px" stroke="none" fill="black" > </text>
<rect x="0" y="-2.55" width="2" height="1.8" stroke-width="0.0094118" />
<line x1="1.565" y1="-3.05" x2="0.435" y2="-3.05" stroke-width="0.0094118" />
<polygon points="0.535,-3.075 0.435,-3.05 0.535,-3.025 " stroke-width="0.0094118" fill="black" />
<text transform="translate(0.68361,-3.0157) scale(1,-1) scale(0.0069444) " font-family="Helvetica,sans-serif" font-size="20px" stroke="none" fill="black" >register(0)</text>
<text transform="translate(0.98069,-3.1824) scale(1,-1) scale(0.0069444) " font-family="Helvetica,sans-serif" font-size="20px" stroke="none" fill="black" > </text>
<line x1="0.325" y1="-1.05" x2="0.325" y2="-3.55" stroke-width="0.0094118" />
<line x1="0.425" y1="-1.05" x2="0.425" y2="-3.55" stroke-width="0.0094118" />
<line x1="0.325" y1="-3.55" x2="0.425" y2="-3.55" stroke-width="0.0094118" />
<line x1="1.575" y1="-0.25" x2="1.575" y2="-3.55" stroke-width="0.0094118" />
<line x1="1.675" y1="-0.25" x2="1.675" y2="-3.55" stroke-width="0.0094118" />
<line x1="1.575" y1="-3.55" x2="1.675" y2="-3.55" stroke-width="0.0094118" />
</g>
</svg>
